<?xml version="1.0" encoding="UTF-8" standalone="no"?>
<!-- Created with Inkscape (http://www.inkscape.org/) -->

<svg
   width="1080"
   height="1080"
   viewBox="0 0 285.74999 285.75"
   version="1.1"
   id="svg1"
   xml:space="preserve"
   inkscape:version="1.3 (0e150ed6c4, 2023-07-21)"
   sodipodi:docname="sample.svg"
   xmlns:inkscape="http://www.inkscape.org/namespaces/inkscape"
   xmlns:sodipodi="http://sodipodi.sourceforge.net/DTD/sodipodi-0.dtd"
   xmlns="http://www.w3.org/2000/svg"
   xmlns:svg="http://www.w3.org/2000/svg"><sodipodi:namedview
     id="namedview1"
     pagecolor="#505050"
     bordercolor="#eeeeee"
     borderopacity="1"
     inkscape:showpageshadow="0"
     inkscape:pageopacity="0"
     inkscape:pagecheckerboard="0"
     inkscape:deskcolor="#d1d1d1"
     inkscape:document-units="mm"
     inkscape:zoom="1.6204616"
     inkscape:cx="397.41762"
     inkscape:cy="561.25983"
     inkscape:window-width="3840"
     inkscape:window-height="2054"
     inkscape:window-x="2293"
     inkscape:window-y="-11"
     inkscape:window-maximized="1"
     inkscape:current-layer="layer1" /><defs
     id="defs1" /><g
     inkscape:label="Camada 1"
     inkscape:groupmode="layer"
     id="layer1"><path
       style="fill:#000000;stroke-width:0.460416"
       d="m 105.01495,199.27868 c -3.82218,-0.63801 -7.168585,-3.74549 -8.160259,-7.57763 -0.491384,-1.89887 -0.499268,-8.85188 -0.01467,-12.93825 1.851247,-15.61068 11.569359,-29.40284 25.556669,-36.2706 0.89704,-0.44045 1.62481,-0.85903 1.61726,-0.93018 -0.008,-0.0711 -0.66612,-0.65964 -1.46348,-1.30777 -4.83883,-3.93311 -8.93445,-11.20927 -10.14938,-18.03106 -0.46639,-2.61876 -0.41224,-8.3421 0.10335,-10.92399 2.54196,-12.72925 12.45864,-22.534022 25.00388,-24.72173 2.63451,-0.459421 8.09826,-0.459421 10.73278,0 11.03865,1.924981 20.37605,10.007017 23.95555,20.73486 1.10091,3.29945 1.47308,5.76554 1.46628,9.71584 -0.007,4.10004 -0.41103,6.63735 -1.58786,9.97319 -1.85571,5.26017 -4.96214,9.91686 -8.80231,13.19507 l -1.55963,1.3314 2.36018,1.2142 c 4.36541,2.24579 7.6045,4.60058 11.26621,8.1904 7.67179,7.52117 12.30785,16.94669 13.56988,27.58874 0.48543,4.09344 0.47744,11.27822 -0.0147,13.17988 -1.02183,3.94868 -4.30356,6.93216 -8.34677,7.58818 -1.91366,0.3105 -73.66973,0.30048 -75.53301,-0.0105 z m 73.79251,-15.50061 c -0.0996,-4.1956 -0.23438,-5.832 -0.6139,-7.45166 -1.1043,-4.71278 -2.8038,-8.67539 -5.39323,-12.57499 -2.00831,-3.02443 -6.58011,-7.59365 -9.61334,-9.6079 -12.45932,-8.27375 -27.77409,-8.31224 -40.2362,-0.10114 -3.17901,2.09461 -7.90156,6.79487 -10.00363,9.95644 -2.55858,3.84815 -4.29995,7.90843 -5.39069,12.56922 -0.37564,1.60512 -0.51484,3.26635 -0.61429,7.33085 l -0.12859,5.25542 h 36.06073 36.06073 z m -31.30955,-46.71854 c 7.76141,-1.76529 13.93136,-8.06261 15.53246,-15.85308 0.48302,-2.35023 0.49156,-6.16664 0.0188,-8.41395 -2.25177,-10.70457 -12.57709,-17.866387 -23.31565,-16.172129 -7.68092,1.211844 -13.93415,6.533579 -16.456,14.004639 -0.67986,2.01411 -0.78825,2.6953 -0.88435,5.55746 -0.0922,2.74633 -0.0283,3.60576 0.40445,5.43665 1.30199,5.50888 5.073,10.56312 9.9729,13.36656 1.62627,0.93046 5.14645,2.11977 7.20463,2.43412 1.98926,0.30381 5.30009,0.14526 7.52275,-0.36027 z"
       id="path1" /></g></svg>
